<?xml version="1.0" standalone="no"?>
<!DOCTYPE svg PUBLIC "-//W3C//DTD SVG 20010904//EN"
 "http://www.w3.org/TR/2001/REC-SVG-20010904/DTD/svg10.dtd">
<svg version="1.0" xmlns="http://www.w3.org/2000/svg"
 width="700.000000pt" height="700.000000pt" viewBox="0 0 700.000000 700.000000"
 preserveAspectRatio="xMidYMid meet">

<g transform="translate(0.000000,700.000000) scale(0.100000,-0.100000)"
fill="#000000" stroke="none">
<path d="M3010 6660 c-225 -9 -315 -25 -442 -80 -170 -73 -329 -188 -608 -437
-173 -155 -274 -259 -396 -409 -228 -279 -302 -422 -353 -684 -29 -147 -41
-286 -41 -477 0 -193 9 -242 55 -282 l33 -29 -24 -94 c-48 -192 -78 -442 -109
-902 -8 -127 -15 -282 -15 -346 0 -212 47 -505 107 -675 62 -173 167 -346 248
-406 24 -19 45 -39 45 -45 0 -6 -31 -58 -69 -115 -214 -322 -595 -711 -789
-804 -71 -34 -180 -55 -288 -55 -111 0 -187 17 -291 65 -54 25 -73 30 -73 20
0 -36 184 -100 328 -114 84 -8 113 -15 101 -24 -2 -2 -74 -46 -159 -97 -137
-82 -162 -93 -212 -97 -66 -6 -79 -23 -17 -23 59 0 149 25 269 75 58 24 141
58 185 75 236 92 556 320 823 586 78 79 142 137 142 129 0 -30 -135 -274 -271
-490 -596 -943 -581 -919 -562 -923 8 -2 19 0 24 5 5 5 69 108 143 229 73 120
219 359 325 529 106 171 219 364 252 430 33 66 72 139 85 162 25 42 60 193 50
216 -2 7 -5 0 -5 -15 -2 -73 -368 -431 -637 -623 -99 -71 -322 -200 -331 -191
-4 3 -2 6 4 6 5 0 46 30 91 68 45 37 114 90 154 117 161 111 509 486 673 725
79 115 78 114 71 45 l-5 -60 10 55 c25 146 29 208 29 452 0 360 -13 581 -55
928 -65 536 -75 624 -76 700 -3 165 -15 135 -42 -105 -15 -132 -42 -346 -62
-475 -48 -327 -60 -499 -46 -708 18 -276 46 -400 122 -539 22 -40 38 -73 36
-73 -13 0 -133 200 -163 271 -82 195 -134 479 -134 739 0 117 35 635 55 827
67 623 256 1150 593 1661 41 62 109 152 150 200 86 99 290 302 305 302 5 0 4
-6 -2 -14 -15 -17 -81 -211 -80 -234 0 -9 17 30 38 88 67 186 72 193 172 260
49 32 107 65 129 71 54 16 89 -3 198 -108 47 -45 88 -80 93 -78 4 3 11 20 14
38 4 17 16 48 26 68 18 37 47 49 122 49 33 0 33 -1 2 -48 -27 -42 -55 -114
-55 -145 0 -29 15 -10 30 38 19 61 54 115 107 167 49 48 151 108 183 108 37 0
150 -107 233 -220 12 -16 10 -10 -4 17 -26 50 -107 137 -168 181 -55 40 -41
40 84 1 164 -51 396 -179 545 -300 30 -25 81 -64 113 -88 31 -24 57 -47 57
-51 0 -8 -61 -49 -94 -63 -18 -7 -17 -9 10 -38 15 -16 53 -41 84 -55 30 -14
83 -42 118 -62 59 -34 68 -45 142 -164 l80 -127 0 -84 c0 -51 5 -89 13 -99 6
-9 48 -46 91 -82 76 -62 105 -105 109 -158 1 -9 4 -15 7 -13 6 4 95 -209 172
-410 79 -209 133 -433 175 -735 l6 -45 -134 129 c-74 71 -156 152 -183 180
-60 63 -43 26 27 -57 29 -34 81 -98 116 -142 36 -44 91 -110 123 -147 l59 -66
-11 -64 c-6 -35 -14 -80 -19 -101 -11 -48 2 -62 66 -71 49 -6 49 -6 70 -64 11
-31 30 -81 42 -110 12 -29 17 -51 12 -48 -5 4 -40 54 -77 111 -36 58 -69 104
-71 101 -5 -5 113 -209 198 -341 53 -83 128 -255 111 -255 -4 0 -41 21 -82 46
-125 78 -280 203 -329 267 -25 33 -61 75 -78 93 -34 34 -43 51 -20 37 6 -4 3
6 -7 22 -11 17 -55 90 -97 163 -43 74 -80 137 -84 140 -21 22 62 -140 108
-208 81 -121 60 -130 -30 -12 -108 142 -132 181 -150 245 -9 31 -18 55 -20 54
-14 -15 125 -487 189 -637 67 -158 179 -343 277 -455 54 -61 163 -160 196
-177 25 -13 19 -7 -65 66 -36 32 -89 85 -118 119 -58 68 -144 206 -160 259
-16 49 -44 199 -39 204 2 3 17 -12 33 -33 16 -21 61 -74 100 -118 39 -44 99
-125 133 -180 35 -55 93 -143 130 -195 37 -52 72 -111 78 -130 9 -30 11 -32
12 -10 1 19 3 22 10 10 6 -8 8 -26 6 -40 -17 -106 -15 -101 -38 -94 -12 4 -73
41 -136 83 -412 275 -669 724 -806 1408 l-16 82 36 112 c20 61 33 114 30 117
-3 3 18 13 47 22 l53 16 -103 38 c-57 21 -107 46 -111 55 -5 9 -12 41 -16 71
-13 99 -95 401 -161 594 -67 196 -178 453 -244 566 -21 36 -51 92 -68 126
-122 242 -524 743 -599 744 -27 0 -114 -69 -141 -113 -12 -18 -28 -58 -35 -88
l-14 -54 76 -11 c175 -27 306 -101 498 -281 201 -188 343 -427 482 -813 21
-58 43 -123 50 -145 41 -140 115 -424 130 -497 l18 -86 -36 5 c-20 3 -50 12
-67 20 -40 18 -333 315 -440 445 -76 93 -197 280 -197 306 0 6 -5 12 -10 12
-6 0 -8 3 -4 6 3 4 -18 54 -47 113 -29 58 -64 132 -77 164 -39 97 -32 49 11
-70 70 -199 108 -389 111 -563 0 -41 5 -86 10 -100 9 -27 3 288 -7 350 l-6 35
32 -50 c77 -119 277 -351 449 -521 l126 -124 -85 0 c-139 0 -343 -63 -396
-121 -18 -20 -17 -20 10 -10 49 19 48 12 -3 -46 -28 -31 -49 -59 -46 -61 2 -3
26 9 52 26 46 30 143 75 148 70 1 -2 -1 -28 -5 -58 -13 -89 7 -168 61 -246 35
-52 47 -52 28 0 -12 33 -11 37 12 62 21 23 69 54 84 54 3 0 5 -7 5 -15 0 -34
15 -12 16 24 4 101 75 111 109 16 8 -22 14 -36 15 -31 0 4 11 1 25 -8 14 -9
31 -14 37 -10 6 4 8 3 4 -4 -3 -6 -2 -13 4 -17 5 -3 10 1 10 10 0 9 -18 24
-42 36 -30 13 -35 18 -16 14 68 -13 77 -21 72 -62 -3 -21 -20 -68 -39 -105
-37 -76 -32 -90 10 -27 52 79 79 166 78 254 -1 44 -6 92 -12 108 -8 22 -8 27
4 27 16 0 18 -6 40 -125 20 -107 19 -154 -5 -193 -24 -39 -25 -49 -5 -32 27
22 36 1 30 -73 -2 -40 -10 -157 -16 -262 -12 -230 -23 -331 -50 -495 -21 -125
-21 -125 -67 -173 -44 -45 -154 -137 -165 -137 -3 0 -31 38 -62 85 -51 77 -92
121 -103 110 -2 -2 11 -23 31 -47 19 -24 42 -59 52 -78 10 -19 52 -71 95 -115
80 -84 110 -122 110 -141 0 -6 -26 -17 -57 -23 -32 -6 -69 -18 -83 -26 l-25
-13 25 -6 c23 -6 110 11 153 29 15 6 17 1 17 -43 0 -28 -4 -54 -10 -57 -5 -3
-10 -2 -10 2 0 9 -83 53 -101 53 -23 0 14 -40 44 -48 35 -9 63 -51 72 -112 l5
-35 -12 31 c-10 25 -15 29 -25 19 -9 -10 -9 -16 0 -25 9 -10 8 -12 -4 -7 -14
4 -17 -1 -15 -29 2 -41 -1 -43 -15 -8 -5 15 -12 25 -15 22 -2 -3 -1 -16 4 -29
5 -13 7 -45 5 -72 -3 -37 0 -54 18 -80 12 -17 -6 -1 -40 36 -35 37 -66 66 -68
63 -2 -2 3 -28 11 -57 19 -62 20 -158 5 -266 -12 -83 -24 -112 -72 -182 l-29
-43 -18 51 c-15 47 -33 76 -125 206 -40 56 -57 108 -48 142 4 18 10 22 22 17
39 -17 63 -9 82 26 21 38 26 129 9 160 -18 33 -101 90 -154 105 -39 11 -54 22
-63 42 -32 74 -42 96 -38 78 2 -11 7 -37 11 -59 6 -36 11 -40 73 -68 36 -17
85 -46 109 -65 34 -28 42 -40 41 -66 -2 -29 -2 -30 -6 -5 -2 14 -11 32 -19 39
-8 7 -14 8 -13 3 4 -21 -2 -35 -11 -29 -5 3 -10 2 -10 -3 0 -5 -20 -8 -44 -7
-34 2 -43 -1 -39 -12 4 -10 0 -11 -18 -3 -13 6 -32 13 -41 16 -10 4 -18 11
-18 16 0 5 5 6 12 2 7 -4 8 -3 4 4 -5 9 -13 9 -27 2 -19 -11 -24 -1 -20 35 0
6 -7 -1 -16 -15 -10 -14 -29 -37 -43 -51 -35 -37 -34 -45 6 -47 19 -2 46 -7
60 -12 14 -6 31 -7 37 -4 9 5 9 4 1 -5 -8 -9 -22 -9 -57 0 -32 8 -63 8 -100 2
l-54 -9 0 80 c0 66 -6 101 -35 191 -22 66 -36 127 -35 153 l2 42 75 0 c52 0
70 3 60 10 -19 12 -153 13 -166 1 -5 -5 -48 -18 -95 -30 -75 -19 -92 -21 -135
-10 -41 10 -177 70 -194 86 -8 7 22 22 86 42 33 11 102 45 152 75 103 60 91
59 227 15 113 -38 158 -60 161 -80 3 -22 33 -77 34 -62 1 31 -41 117 -84 171
-40 51 -122 122 -140 122 -4 0 -24 12 -46 26 -21 14 -64 34 -95 43 l-56 17 28
13 c48 22 133 25 183 6 25 -9 74 -18 110 -20 36 -1 93 -8 128 -15 51 -10 68
-19 87 -44 34 -45 75 -136 75 -168 0 -39 13 -35 45 14 16 24 37 56 47 71 11
15 18 33 16 39 -6 16 -44 -27 -67 -76 l-19 -41 -7 30 c-12 50 -67 145 -94 164
-27 20 -213 56 -237 47 -7 -3 -34 4 -59 15 -90 40 -225 20 -280 -41 -18 -20
-17 -20 17 -20 50 0 126 -25 179 -59 35 -22 51 -40 64 -75 10 -26 16 -49 13
-51 -3 -3 -25 4 -49 15 -69 31 -94 26 -203 -40 -55 -33 -105 -60 -113 -60 -7
0 -30 -7 -50 -15 -36 -15 -39 -15 -122 21 -157 67 -231 143 -401 409 -46 72
-102 155 -125 185 -22 30 -57 82 -78 115 l-37 60 16 45 c8 25 21 51 29 59 11
12 12 8 5 -25 -6 -28 -6 -41 3 -45 7 -4 29 -20 49 -36 21 -15 48 -36 62 -45
17 -12 23 -24 19 -38 -6 -21 20 -29 32 -10 3 6 1 10 -5 10 -6 0 -8 5 -4 11 3
6 -5 23 -19 37 -36 39 -97 132 -97 148 0 8 -5 14 -11 14 -15 0 50 88 91 121
19 16 37 29 41 29 4 0 9 -20 11 -45 11 -92 103 -230 147 -218 12 3 21 13 21
22 0 14 -2 14 -10 1 -5 -8 -11 -12 -14 -9 -8 7 21 89 39 113 15 20 15 20 31 0
15 -19 15 -18 5 2 -14 30 20 84 53 84 14 0 28 -4 31 -10 3 -5 25 -10 48 -10
23 0 47 -4 53 -8 10 -7 29 -51 37 -87 10 -43 6 50 -4 118 -6 43 -23 94 -40
126 -16 30 -27 57 -24 60 3 3 24 5 45 6 45 0 46 2 24 33 -30 43 -106 206 -140
300 -35 96 -77 267 -89 362 -14 110 -20 75 -18 -107 2 -175 22 -383 44 -467 6
-21 9 -40 6 -42 -2 -2 -25 -5 -51 -6 -47 -3 -47 -3 -62 37 -52 148 -83 442
-85 805 -1 171 -4 239 -10 205 -4 -27 -8 -137 -9 -243 -1 -305 -37 -539 -117
-752 -14 -36 -27 -67 -30 -70 -3 -3 -2 22 1 55 8 83 2 65 -39 -123 -33 -149
-40 -168 -77 -218 -23 -30 -43 -53 -45 -51 -7 8 -41 202 -47 267 -14 158 -21
397 -21 680 0 312 8 436 27 409 7 -10 8 -5 4 17 -2 17 2 50 10 73 8 23 11 53
8 68 -5 19 -4 24 5 18 9 -5 12 -1 10 11 -1 11 0 26 4 34 3 8 19 58 35 111 74
234 149 390 242 501 64 75 155 163 225 214 33 24 65 48 71 53 6 5 26 17 45 26
l33 18 -45 41 c-79 71 -185 120 -226 105 -67 -25 -250 -397 -303 -619 -11 -47
-41 -168 -65 -269 -92 -379 -110 -546 -102 -971 8 -381 21 -565 53 -749 13
-80 23 -150 20 -157 -3 -8 -1 -16 3 -18 4 -3 11 -29 14 -58 3 -29 20 -102 37
-163 17 -60 56 -198 87 -305 67 -240 141 -431 199 -517 24 -36 44 -67 44 -69
0 -12 -139 50 -196 88 -173 115 -282 272 -375 538 -19 52 -35 87 -37 77 -5
-26 35 -151 76 -237 20 -41 38 -79 40 -85 3 -5 -10 8 -28 30 -17 22 -66 101
-108 175 -41 74 -86 149 -98 165 -68 91 -126 244 -199 525 -25 96 -43 153 -40
125 9 -70 70 -309 101 -396 36 -100 97 -231 178 -383 81 -154 118 -208 205
-301 36 -39 83 -92 104 -117 20 -26 73 -73 117 -105 44 -32 80 -65 80 -73 0
-38 -50 -256 -80 -346 -37 -116 -121 -297 -187 -404 -62 -100 -223 -328 -293
-415 -31 -38 -79 -102 -107 -140 -57 -78 -203 -365 -203 -399 0 -11 -5 -28
-10 -36 -21 -32 -9 73 14 133 14 34 28 80 32 102 7 44 52 123 120 214 38 50
45 69 55 134 6 41 19 89 29 105 20 33 66 50 84 31 8 -9 6 -10 -11 -6 -13 3
-23 1 -23 -4 0 -5 9 -9 20 -9 28 0 26 -8 -23 -75 -53 -73 -67 -100 -32 -60 14
17 62 84 106 150 44 66 71 109 60 96 -24 -27 -25 -23 -8 39 16 58 24 70 48 70
22 0 23 -4 9 -31 -6 -10 -9 -19 -6 -19 20 0 295 535 312 605 14 60 -15 9 -77
-140 l-63 -149 -89 -86 c-154 -147 -359 -398 -429 -524 -43 -78 -33 -29 22
114 28 71 50 133 50 138 0 5 35 65 78 134 43 68 76 130 74 138 -3 7 0 10 6 6
6 -3 14 -1 18 5 4 8 3 9 -4 5 -19 -12 -14 2 24 61 82 129 148 363 189 673 8
62 15 124 15 137 0 37 -18 26 -24 -14 -3 -21 -15 -103 -26 -183 -12 -80 -25
-161 -30 -180 -34 -135 -44 -168 -56 -190 l-15 -25 7 25 c9 32 9 37 -11 144
-14 74 -78 293 -89 304 -2 1 -6 -8 -8 -22 -3 -14 -1 -23 3 -20 5 3 9 1 9 -5 0
-5 3 -18 7 -28 6 -17 6 -17 -14 0 -24 21 -16 35 -73 -128 -21 -60 -48 -164
-59 -230 -11 -66 -23 -136 -26 -155 -5 -27 7 -11 49 65 30 55 63 117 72 138 9
20 21 37 26 37 5 0 8 -88 6 -208 l-3 -207 -63 -108 c-125 -213 -192 -379 -232
-578 -12 -56 -26 -111 -31 -121 -5 -10 -7 -22 -4 -27 3 -5 -40 -103 -96 -218
-87 -178 -179 -379 -179 -390 0 -2 123 -3 273 -3 l272 0 60 85 c33 47 90 137
126 200 77 135 87 147 138 170 l39 17 93 -37 c51 -21 123 -57 159 -80 263
-170 366 -241 423 -294 l65 -61 249 0 249 0 -4 133 c-2 72 0 143 6 157 9 23 9
24 20 4 6 -11 11 -73 12 -139 2 -66 5 -128 7 -137 5 -21 23 -24 23 -4 0 24 31
27 60 6 15 -11 32 -20 37 -20 4 0 -7 10 -25 22 -54 34 -17 40 41 6 27 -16 54
-27 59 -26 6 2 -13 14 -41 28 -45 21 -66 40 -43 40 4 0 20 11 36 25 22 19 40
25 77 25 40 0 55 -6 96 -39 26 -21 57 -48 67 -60 11 -11 26 -21 34 -21 22 0
-30 53 -90 91 -27 17 -48 35 -48 39 0 9 193 24 217 16 10 -3 29 -24 43 -46 24
-38 40 -51 40 -31 0 6 19 12 43 14 33 3 31 4 -9 2 -40 -1 -54 3 -63 17 -12 19
-15 19 132 23 21 1 43 7 49 13 14 14 224 17 232 4 3 -5 18 -7 33 -5 18 3 45
-5 76 -22 55 -31 56 -29 -48 -84 -34 -17 -51 -31 -40 -31 11 0 48 18 83 40 77
49 108 47 118 -6 l6 -34 174 0 c96 0 174 2 174 5 0 3 -24 38 -54 78 -104 138
-265 463 -249 503 5 13 3 15 -7 9 -8 -5 -11 -4 -6 3 3 6 -10 55 -30 109 -82
222 -124 358 -149 475 -28 129 -60 412 -49 430 4 6 0 14 -7 19 -12 8 -12 10 0
18 11 7 11 12 -2 32 -22 35 -35 153 -48 419 -6 129 -13 237 -15 239 -11 11 -6
-345 7 -483 5 -60 8 -110 6 -113 -2 -2 -17 15 -33 39 -28 40 -29 45 -27 152 1
69 -2 102 -7 86 -4 -14 -9 -41 -10 -60 -1 -33 -2 -34 -11 -11 -9 22 1 132 55
636 2 22 18 146 34 275 17 129 36 295 43 368 l12 133 19 -73 c10 -39 42 -124
72 -188 30 -63 75 -167 101 -230 26 -63 55 -131 65 -150 14 -28 21 -79 30
-225 24 -414 31 -626 34 -1005 3 -356 5 -398 21 -430 29 -58 141 -204 195
-254 49 -46 50 -46 118 -46 75 0 135 17 185 52 24 17 28 18 18 4 -8 -10 -36
-29 -63 -42 -26 -13 -48 -29 -48 -35 0 -6 7 -9 15 -5 8 3 15 2 15 -3 0 -4 17
8 38 28 55 52 105 77 132 65 l21 -9 -21 -28 c-12 -16 -25 -26 -28 -23 -8 8
-63 -34 -57 -44 8 -13 -80 -70 -109 -70 -14 0 -26 -5 -26 -10 0 -16 68 -1 110
23 19 11 47 31 61 44 l27 25 12 -37 c10 -31 10 -39 -5 -55 -15 -16 -16 -31
-10 -93 6 -71 8 -75 38 -89 18 -9 47 -19 64 -22 35 -8 41 1 45 69 4 76 -3 104
-37 150 -34 44 -38 65 -11 65 17 0 60 -47 81 -90 15 -28 17 -51 12 -128 -5
-92 -5 -93 19 -103 40 -15 52 -11 47 14 -5 23 23 105 32 96 2 -3 5 -33 6 -66
l2 -62 51 3 c34 2 64 11 88 27 40 26 45 34 26 45 -6 4 -8 3 -5 -3 8 -12 -20
-39 -30 -30 -3 4 1 17 10 30 15 23 14 27 -4 62 -42 79 -150 233 -220 315 -40
47 -117 146 -172 220 -55 74 -115 152 -134 173 -64 72 -215 312 -288 457 -93
186 -136 296 -174 442 -29 109 -31 131 -31 285 l0 168 63 -130 c66 -134 144
-268 269 -460 237 -364 229 -350 218 -379 -18 -48 -12 -63 34 -90 34 -20 55
-44 90 -105 25 -44 52 -84 59 -88 7 -4 32 -35 55 -68 41 -60 70 -136 213 -554
27 -79 55 -151 62 -160 8 -9 27 -45 43 -80 54 -122 34 -43 -52 205 -149 432
-224 658 -224 674 1 22 73 -60 199 -224 59 -78 136 -174 170 -215 35 -41 71
-93 81 -115 19 -41 68 -231 76 -296 3 -19 9 -51 14 -70 13 -53 33 -346 26
-385 l-7 -35 267 0 c250 0 266 1 259 18 -4 9 -16 37 -25 62 -23 58 -166 313
-230 410 -69 104 -397 629 -488 780 -42 69 -110 193 -153 275 l-77 150 -6 320
c-3 176 -8 410 -10 520 l-5 200 25 -75 c68 -205 94 -309 114 -441 12 -79 24
-146 27 -149 8 -8 58 59 109 145 27 43 64 97 83 118 26 29 35 47 32 66 -5 42
-126 359 -213 561 -44 102 -85 197 -91 212 -11 26 -8 31 37 77 27 28 62 55 78
62 15 6 28 15 28 19 0 4 -14 40 -31 81 -17 41 -48 124 -69 185 l-38 111 52
105 c28 58 67 150 85 204 19 55 37 102 40 106 4 5 46 -12 94 -37 48 -25 94
-45 102 -45 24 0 8 57 -39 140 -23 41 -53 100 -65 131 -21 52 -21 61 -10 120
7 35 12 130 12 210 0 134 -2 149 -22 183 -12 19 -36 45 -52 56 l-29 21 24 32
c22 29 56 100 56 116 0 10 -178 98 -215 107 -67 16 -70 36 -15 105 48 60 50
83 15 175 -45 120 -83 188 -121 213 -19 13 -82 73 -139 133 -57 59 -106 108
-110 108 -9 0 -26 -49 -39 -113 l-12 -57 -79 91 c-163 187 -477 470 -665 599
-142 96 -235 130 -520 189 -284 58 -604 78 -1010 61z m-1015 -572 c-280 -282
-397 -421 -502 -598 -97 -163 -135 -268 -219 -605 -63 -254 -64 -257 -58 -140
12 229 57 460 114 583 80 172 332 480 587 717 127 119 270 245 277 245 2 0
-88 -91 -199 -202z m805 77 c0 -3 -21 -55 -26 -63 -1 -2 -32 -14 -69 -27 -45
-17 -72 -22 -83 -16 -13 7 0 17 60 45 42 20 82 43 88 51 12 14 30 20 30 10z
m573 -2 c-7 -2 -21 -2 -30 0 -10 3 -4 5 12 5 17 0 24 -2 18 -5z m70 0 c-7 -2
-21 -2 -30 0 -10 3 -4 5 12 5 17 0 24 -2 18 -5z m825 -173 c31 -36 42 -56 37
-70 -6 -19 -8 -19 -56 5 -48 25 -66 55 -32 55 13 0 14 3 5 12 -13 13 -16 48
-4 48 4 0 26 -23 50 -50z m-343 -108 c66 -47 113 -83 105 -80 -16 6 -278 184
-295 201 -21 21 75 -40 190 -121z m289 -142 c28 -17 46 -30 40 -30 -20 0 -107
64 -122 90 -12 22 -11 21 8 -3 12 -15 45 -41 74 -57z m762 18 l29 -33 -32 29
c-31 28 -38 36 -30 36 2 0 16 -15 33 -32z m-822 -24 c5 -14 4 -15 -9 -4 -17
14 -19 20 -6 20 5 0 12 -7 15 -16z m898 -71 c34 -51 50 -45 22 9 l-16 33 35
-39 c21 -24 37 -34 41 -27 4 6 12 11 17 11 6 0 7 -4 4 -10 -3 -5 3 -10 14 -10
28 0 27 3 -16 52 -30 32 -32 38 -12 25 62 -41 90 -123 93 -277 3 -120 18 -260
27 -254 5 3 9 76 9 163 0 125 4 173 20 232 11 41 20 88 21 104 l2 30 6 -34 c4
-23 12 -35 24 -37 10 -1 26 -6 35 -10 9 -3 28 -8 41 -10 13 -2 27 -7 30 -11 3
-4 23 -17 44 -27 20 -11 37 -22 37 -25 0 -3 12 -20 28 -36 33 -36 48 -63 57
-107 4 -18 19 -48 33 -66 l26 -34 18 22 c23 28 23 17 1 -22 -10 -16 -49 -53
-88 -81 -62 -46 -67 -52 -45 -55 14 -2 32 -10 40 -17 8 -7 42 -15 74 -19 55
-6 184 -62 171 -74 -2 -3 -15 2 -27 10 -30 18 -85 42 -76 32 4 -4 3 -13 -2
-19 -7 -9 0 -20 25 -39 41 -32 43 -43 13 -71 -22 -21 -26 -21 -77 -8 -33 9
-57 11 -63 5 -6 -6 7 -12 32 -16 27 -4 39 -10 34 -18 -4 -7 -3 -8 4 -4 7 4 20
2 29 -4 16 -10 16 -11 -2 -5 -16 4 -15 1 7 -17 54 -47 89 -162 59 -199 -9 -11
-27 -21 -41 -23 -32 -3 -83 -24 -91 -37 -3 -6 -19 11 -34 38 -39 66 -75 113
-88 113 -7 0 -7 -4 1 -12 7 -7 12 -23 12 -38 -1 -21 -4 -19 -25 21 -16 30 -35
51 -55 59 -17 7 -37 25 -44 39 -22 42 -53 64 -102 71 l-46 7 6 -41 c4 -22 8
-42 10 -43 2 -2 29 -8 61 -13 92 -15 138 -52 160 -130 l7 -25 -17 23 -17 23
-20 -26 c-10 -14 -27 -25 -37 -25 -10 0 -31 -11 -47 -25 -26 -23 -38 -29 -55
-27 -3 1 -29 2 -58 3 -49 2 -52 4 -46 26 3 13 1 23 -5 23 -5 0 -10 -6 -10 -12
0 -10 -3 -10 -9 0 -5 8 -17 12 -27 10 -11 -2 -28 4 -38 14 -11 10 -26 18 -33
18 -7 0 -13 4 -13 8 0 5 -8 17 -18 28 -10 10 -21 26 -25 34 -11 23 -30 50 -59
83 -14 16 -25 38 -23 48 2 10 -1 22 -7 25 -6 4 -9 3 -6 -2 3 -5 0 -15 -8 -22
-56 -52 67 139 138 214 71 76 94 74 135 -8 17 -35 34 -78 38 -95 4 -18 11 -36
17 -39 6 -4 8 1 5 12 -3 11 -11 42 -18 69 -7 28 -23 64 -36 81 -13 17 -23 36
-23 41 0 28 -130 21 -166 -8 -13 -11 -131 -39 -164 -39 -24 0 -25 2 -25 63 1
53 -2 63 -15 60 -10 -3 -19 6 -25 24 -17 45 -7 72 37 100 39 26 41 27 83 12
41 -15 43 -15 32 3 -7 10 -15 18 -20 18 -4 0 -6 4 -2 9 3 5 -16 26 -42 47 -76
60 -76 60 -48 115 14 27 25 53 25 59 0 22 31 42 70 44 22 2 43 6 46 9 10 10
21 0 56 -50z m-697 23 c22 -7 46 -11 54 -8 9 3 12 0 8 -10 -7 -19 11 -38 29
-31 8 3 31 -7 51 -23 22 -17 32 -29 24 -32 -8 -3 19 -37 69 -86 l81 -83 -40
-36 c-35 -31 -48 -37 -86 -37 -44 0 -46 2 -95 68 -68 92 -180 308 -154 298 10
-4 37 -13 59 -20z m-2022 -21 c-3 -9 -8 -14 -10 -11 -3 3 -2 9 2 15 9 16 15
13 8 -4z m1971 -61 c3 -8 2 -12 -4 -9 -6 3 -10 10 -10 16 0 14 7 11 14 -7z
m-1910 -49 c-9 -14 -18 -25 -21 -25 -5 0 5 18 20 38 17 22 18 13 1 -13z m-133
-52 c-12 -20 -14 -14 -5 12 4 9 9 14 11 11 3 -2 0 -13 -6 -23z m-685 2 c4 -9
26 -27 50 -41 l43 -25 -34 -68 c-19 -38 -35 -72 -35 -77 0 -5 -4 -15 -9 -23
-7 -11 -17 -11 -57 5 -27 9 -51 19 -52 20 -5 3 47 184 59 206 12 22 28 23 35
3z m3118 -42 c9 -23 -10 -13 -45 23 l-34 36 37 -23 c21 -13 40 -30 42 -36z
m-2459 -43 c-4 -12 -9 -19 -12 -17 -3 3 -2 15 2 27 4 12 9 19 12 17 3 -3 2
-15 -2 -27z m-492 -15 c-3 -8 -9 -15 -14 -15 -4 0 -16 -17 -25 -37 -10 -20
-20 -31 -22 -25 -5 17 47 104 58 97 5 -3 7 -12 3 -20z m456 -89 c-28 -77 -33
-67 -6 12 12 34 23 58 25 53 1 -4 -7 -34 -19 -65z m2277 2 c10 -12 13 -18 7
-14 -7 4 -13 2 -13 -3 0 -6 -7 -11 -15 -11 -16 0 -19 9 -9 34 8 20 7 20 30 -6z
m-2812 -28 c-14 -14 -38 5 -30 26 6 16 8 16 23 1 11 -11 14 -20 7 -27z m-124
-137 c-10 -81 -15 -94 -62 -163 -29 -41 -66 -92 -83 -112 -27 -32 -67 -106
-124 -228 -11 -24 -11 -24 -6 5 9 42 81 204 116 260 16 25 29 53 29 61 0 21
38 172 52 207 8 21 16 27 30 24 11 -3 21 0 24 9 14 46 15 47 25 37 8 -8 8 -37
-1 -100z m80 48 c-15 -31 -26 -41 -45 -41 -27 0 -28 1 -19 24 3 9 17 16 31 16
18 0 28 8 36 30 7 17 13 27 15 21 2 -5 -6 -28 -18 -50z m2887 45 c14 -23 107
-84 174 -114 47 -21 75 -27 106 -24 39 4 77 -13 172 -75 2 -1 -6 -17 -18 -36
-31 -50 -51 -121 -57 -202 -3 -38 -9 -103 -14 -143 -14 -106 -12 -230 5 -286
19 -62 4 -51 -54 37 -51 79 -57 119 -36 237 9 52 18 101 18 109 1 8 -10 17
-24 21 -69 19 -326 208 -335 247 -8 32 11 194 26 223 12 23 26 26 37 6z
m-2376 -189 c-10 -9 -11 -8 -5 6 3 10 9 15 12 12 3 -3 0 -11 -7 -18z m3754
-15 c-3 -3 -11 0 -18 7 -9 10 -8 11 6 5 10 -3 15 -9 12 -12z m-29 -71 c-15
-28 -28 -51 -31 -51 -3 0 7 25 22 55 15 30 29 53 31 51 2 -2 -8 -27 -22 -55z
m-3759 -43 c-3 -8 -6 -5 -6 6 -1 11 2 17 5 13 3 -3 4 -12 1 -19z m3728 -48 c3
-6 -1 -7 -9 -4 -18 7 -21 14 -7 14 6 0 13 -4 16 -10z m45 -35 c13 -14 21 -25
18 -25 -2 0 -15 11 -28 25 -13 14 -21 25 -18 25 2 0 15 -11 28 -25z m-370
-199 c0 -2 -8 -10 -17 -17 -16 -13 -17 -12 -4 4 13 16 21 21 21 13z m-105
-185 c3 -10 15 -27 26 -37 17 -16 22 -16 29 -4 7 11 10 3 10 -26 0 -23 5 -66
10 -95 6 -30 11 -71 12 -92 0 -22 8 -64 17 -95 29 -98 9 -131 -41 -68 -24 30
-26 40 -22 87 6 54 5 54 -64 150 -58 83 -68 102 -64 129 3 22 14 38 36 51 39
24 43 24 51 0z m-297 -261 c0 -82 -3 -150 -6 -150 -9 0 -62 66 -62 76 0 4 11
-3 25 -16 50 -47 24 3 -32 62 l-57 60 24 18 c18 14 27 16 33 7 6 -8 7 -5 3 7
-5 14 3 29 26 53 17 18 35 33 39 33 4 0 7 -67 7 -150z m411 30 c0 -10 -3 -8
-9 5 -12 27 -12 43 0 25 5 -8 9 -22 9 -30z m-2870 -248 c23 -73 66 -181 96
-241 30 -60 55 -112 55 -116 0 -3 -26 -5 -57 -3 -45 2 -57 6 -56 18 2 9 -7 20
-19 25 -35 16 -56 133 -73 400 -6 105 -3 100 54 -83z m-219 75 c0 -52 55 -326
75 -374 16 -37 13 -53 -9 -53 -30 0 -160 -75 -212 -123 l-57 -51 8 34 c4 19
17 55 30 80 12 25 36 92 54 150 18 58 41 131 52 162 11 32 25 95 31 142 12 88
28 107 28 33z m2707 -194 c-3 -10 -5 -4 -5 12 0 17 2 24 5 18 2 -7 2 -21 0
-30z m-802 -3 c18 -7 19 -8 3 -15 -15 -6 -18 -20 -18 -73 0 -85 -8 -76 -18 21
-9 80 -7 84 33 67z m792 -87 c-3 -10 -5 -2 -5 17 0 19 2 27 5 18 2 -10 2 -26
0 -35z m360 -5 c-3 -7 -5 -2 -5 12 0 14 2 19 5 13 2 -7 2 -19 0 -25z m-370
-65 c-3 -10 -5 -4 -5 12 0 17 2 24 5 18 2 -7 2 -21 0 -30z m380 -5 c-3 -7 -5
-2 -5 12 0 14 2 19 5 13 2 -7 2 -19 0 -25z m10 -60 c-3 -7 -5 -2 -5 12 0 14 2
19 5 13 2 -7 2 -19 0 -25z m-400 -15 c-3 -10 -5 -4 -5 12 0 17 2 24 5 18 2 -7
2 -21 0 -30z m-70 5 c-3 -8 -6 -5 -6 6 -1 11 2 17 5 13 3 -3 4 -12 1 -19z
m480 -45 c-3 -10 -5 -4 -5 12 0 17 2 24 5 18 2 -7 2 -21 0 -30z m-4062 -228
c13 -104 39 -323 57 -485 31 -280 33 -314 33 -672 0 -207 -4 -380 -8 -385 -27
-26 -139 190 -177 340 -54 214 -61 443 -25 817 16 157 73 586 83 610 6 17 4
33 37 -225z m3572 213 c-3 -8 -6 -5 -6 6 -1 11 2 17 5 13 3 -3 4 -12 1 -19z
m70 -30 c-2 -13 -4 -5 -4 17 -1 22 1 32 4 23 2 -10 2 -28 0 -40z m290 -40 c-2
-18 -4 -4 -4 32 0 36 2 50 4 33 2 -18 2 -48 0 -65z m190 -130 c24 -27 33 -22
33 20 0 20 5 55 11 76 l11 40 44 -47 c38 -42 44 -53 44 -92 0 -25 5 -45 10
-45 6 0 10 5 10 10 0 6 6 10 13 10 12 0 -62 -71 -95 -90 -13 -8 -15 -6 -12 8
4 16 -62 99 -72 90 -6 -7 19 -133 29 -139 5 -4 4 -9 -2 -13 -6 -4 -11 -6 -11
-4 0 2 -16 79 -35 173 -19 93 -35 176 -34 185 1 8 10 -25 20 -74 10 -49 26
-98 36 -108z m-565 120 c-6 -6 -7 0 -4 19 5 21 7 23 10 9 2 -10 0 -22 -6 -28z
m113 -50 c14 -26 25 -54 25 -62 0 -25 24 -8 45 30 16 31 62 74 79 74 6 0 42
-113 51 -164 8 -42 11 -43 42 -14 18 17 23 18 23 6 0 -8 -22 -38 -50 -65 -29
-29 -52 -63 -56 -80 l-6 -30 -54 57 c-34 36 -54 66 -54 81 -1 35 -67 194 -79
192 -6 -2 -11 9 -11 25 0 31 6 25 45 -50z m602 10 c-3 -8 -6 -5 -6 6 -1 11 2
17 5 13 3 -3 4 -12 1 -19z m-650 -55 c-3 -10 -5 -2 -5 17 0 19 2 27 5 18 2
-10 2 -26 0 -35z m14 -106 c15 -4 14 -4 -3 -3 -19 1 -23 7 -24 36 -1 34 -1 34
3 3 3 -21 10 -33 24 -36z m-2963 -13 c-7 -15 -14 -21 -16 -15 -2 7 2 18 8 26
18 22 21 18 8 -11z m3481 -389 c49 -159 97 -319 106 -355 10 -37 29 -77 44
-93 l26 -28 7 51 c8 64 21 80 46 57 26 -24 32 -21 32 11 0 45 -44 165 -184
500 -31 74 -51 132 -45 130 6 -2 19 -24 30 -48 175 -416 220 -528 244 -600 15
-47 34 -95 42 -107 20 -30 0 -39 -35 -15 -15 11 -40 34 -56 51 -17 17 -33 31
-36 31 -4 0 -10 -65 -13 -144 -7 -142 -17 -196 -36 -196 -5 0 -13 21 -16 48
-15 113 -43 229 -141 575 -88 313 -128 472 -109 432 2 -5 44 -140 94 -300z
m-404 218 c27 -32 39 -49 26 -38 -24 21 -86 95 -79 95 2 0 26 -26 53 -57z
m178 -36 c4 3 7 -1 7 -11 0 -19 -18 -12 -55 21 -44 40 -47 55 -4 20 25 -20 49
-34 52 -30z m-701 0 c-6 -22 -6 -22 -13 3 -12 43 -10 58 5 37 8 -10 11 -28 8
-40z m-2459 -91 l75 -103 11 -124 c14 -160 19 -326 9 -300 -4 12 -9 83 -12
159 -2 75 -7 146 -9 157 -3 11 -6 28 -6 37 -1 9 -10 20 -21 23 -15 5 -19 12
-15 26 4 10 2 19 -4 19 -10 0 -21 28 -26 65 -1 13 -16 43 -34 66 l-31 43 6
-34 c4 -19 15 -66 25 -105 11 -38 19 -79 18 -90 -1 -11 -14 32 -30 95 -16 63
-27 121 -24 128 2 6 0 12 -5 12 -6 0 -10 7 -10 15 0 8 2 15 4 15 2 0 37 -47
79 -104z m2464 32 c-3 -7 -5 -2 -5 12 0 14 2 19 5 13 2 -7 2 -19 0 -25z m619
-20 l29 -33 -32 29 c-18 17 -33 31 -33 33 0 8 8 1 36 -29z m-602 -14 c3 -8 2
-12 -4 -9 -6 3 -10 10 -10 16 0 14 7 11 14 -7z m722 -276 c-7 -240 -32 -500
-72 -757 -26 -171 -26 -174 -9 -232 10 -32 21 -59 24 -59 3 0 27 21 54 48 44
43 49 46 61 29 8 -9 17 -45 20 -78 l7 -61 24 31 c21 29 24 47 30 189 4 86 6
235 3 332 -3 119 -2 165 5 145 5 -16 10 -172 10 -345 0 -248 -3 -343 -17 -445
-10 -71 -20 -132 -22 -135 -3 -2 -13 1 -22 6 -13 9 -21 45 -35 160 -10 82 -20
151 -23 153 -2 3 -23 -13 -47 -35 -70 -68 -131 -111 -149 -106 -22 4 -22 6 2
94 59 220 122 726 136 1100 4 106 11 178 17 178 6 0 8 -75 3 -212z m-3197 42
c0 -9 -4 -8 -9 5 -5 11 -9 27 -9 35 0 9 4 8 9 -5 5 -11 9 -27 9 -35z m206
-133 c-11 -27 -60 -66 -70 -55 -2 2 -5 55 -6 119 l-4 116 47 -73 c46 -72 47
-75 33 -107z m2870 -184 c36 -113 40 -138 29 -168 -11 -27 -62 101 -75 186
-14 95 -22 103 -13 14 4 -39 4 -68 1 -65 -9 9 -157 274 -157 282 0 4 40 -25
90 -65 l89 -72 36 -112z m50 54 c2 -7 1 -28 -4 -47 l-8 -35 -12 43 c-7 24 -15
50 -18 59 -5 13 -3 14 16 4 12 -7 24 -18 26 -24z m-1171 -64 c-8 -49 -14 -110
-14 -137 l0 -50 -29 45 c-15 25 -45 59 -66 76 l-37 31 77 61 c43 34 79 61 80
61 1 0 -4 -39 -11 -87z m-1799 27 c3 -5 20 -10 37 -10 23 0 29 -4 24 -16 -3
-9 -6 -66 -6 -127 0 -65 -4 -107 -9 -102 -5 6 -25 47 -45 93 -30 69 -35 89
-29 127 6 44 15 56 28 35z m164 -7 c3 -2 0 -8 -5 -13 -5 -5 -19 -1 -34 11
l-25 20 30 -7 c17 -4 32 -9 34 -11z m144 -28 c29 -20 35 -29 27 -43 -15 -28
-48 -143 -54 -192 -4 -25 -21 -96 -38 -159 -26 -94 -29 -115 -17 -122 10 -6 2
-9 -23 -9 -29 0 -35 3 -32 18 2 9 8 118 14 242 9 195 8 226 -4 236 -13 9 -12
14 7 32 29 29 74 28 120 -3z m-186 -33 c-8 -9 -17 -24 -20 -32 -3 -8 -6 4 -6
28 -1 40 0 42 20 32 18 -10 19 -13 6 -28z m3392 8 c45 -38 33 -51 -14 -16
l-35 27 0 -83 c0 -46 -5 -90 -10 -98 -7 -10 -10 14 -10 77 0 134 8 145 69 93z
m-3350 -225 c-6 -104 -14 -255 -17 -335 l-7 -145 -43 -3 -44 -3 6 63 c17 188
28 294 32 299 2 4 15 4 29 1 32 -6 32 3 -2 32 l-27 23 15 126 c16 130 31 169
55 145 10 -10 11 -51 3 -203z m241 197 c32 -12 45 -23 45 -37 0 -32 151 -99
270 -119 l70 -12 3 -59 c2 -33 -1 -61 -7 -65 -6 -3 -13 -28 -17 -56 -3 -27
-15 -70 -26 -96 l-21 -47 -45 50 -45 51 -61 -7 c-34 -4 -103 -17 -155 -31 -52
-13 -96 -22 -99 -19 -3 2 1 11 7 19 7 8 10 20 6 25 -9 15 18 421 28 421 1 0
22 -8 47 -18z m2230 -180 c0 -7 -74 55 -95 79 -11 13 6 1 38 -26 31 -27 57
-51 57 -53z m-1755 4 c19 -8 35 -18 35 -21 0 -4 -14 -26 -30 -51 -45 -64 -60
-59 -60 21 0 38 4 65 10 65 6 0 26 -7 45 -14z m-1510 -107 c-10 -15 -25 -10
-19 6 4 8 10 12 15 9 5 -3 7 -10 4 -15z m640 -15 l32 -13 -9 -63 c-13 -100
-11 -98 -78 -98 l-58 0 19 72 c11 39 19 85 19 100 0 32 4 32 75 2z m2787 -58
c49 -36 94 -66 100 -68 10 -4 -13 -161 -30 -208 -8 -22 -11 -19 -46 40 -37 62
-136 276 -136 292 0 18 27 5 112 -56z m-1972 30 c0 -3 -4 -8 -10 -11 -5 -3
-10 -1 -10 4 0 6 5 11 10 11 6 0 10 -2 10 -4z m-527 -133 c-7 -2 -19 -2 -25 0
-7 3 -2 5 12 5 14 0 19 -2 13 -5z m1494 -55 c-2 -13 -4 -5 -4 17 -1 22 1 32 4
23 2 -10 2 -28 0 -40z m520 20 c-3 -8 -6 -5 -6 6 -1 11 2 17 5 13 3 -3 4 -12
1 -19z m0 -40 c-3 -8 -6 -5 -6 6 -1 11 2 17 5 13 3 -3 4 -12 1 -19z m-2280
-55 c-2 -16 -4 -5 -4 22 0 28 2 40 4 28 2 -13 2 -35 0 -50z m1788 21 c9 -15
12 -23 6 -20 -11 7 -35 46 -28 46 3 0 12 -12 22 -26z m-515 -10 l25 -15 -25 7
c-14 3 -29 10 -34 15 -16 14 6 10 34 -7z m1007 -26 c-3 -8 -6 -5 -6 6 -1 11 2
17 5 13 3 -3 4 -12 1 -19z m-1022 -18 c9 -14 -45 -76 -62 -72 -8 2 -23 12 -34
23 -20 20 -20 20 23 39 49 22 64 24 73 10z m-2034 -37 c-10 -17 -10 -16 -11 3
0 23 13 41 18 25 2 -6 -1 -18 -7 -28z m770 0 c13 -16 12 -17 -3 -4 -17 13 -22
21 -14 21 2 0 10 -8 17 -17z m-109 -46 c68 -54 113 -101 211 -221 46 -57 55
-74 50 -95 -3 -14 -9 -30 -13 -36 -4 -5 -19 -44 -34 -85 l-26 -75 -98 -40
c-53 -21 -99 -39 -102 -38 -3 1 -12 -4 -20 -11 -14 -11 -126 -46 -150 -46 -5
0 -10 6 -10 14 0 8 -4 17 -8 20 -5 3 -6 -8 -4 -25 2 -16 7 -29 11 -29 23 0
300 98 344 121 23 13 22 1 -9 -96 -28 -88 -122 -274 -142 -282 -17 -7 -78 42
-109 88 l-25 39 -28 -38 c-38 -53 -86 -91 -148 -119 -29 -12 -55 -23 -58 -23
-9 0 8 92 32 169 13 42 22 77 20 79 -6 5 -45 -116 -60 -188 -21 -96 -64 -240
-85 -280 -20 -40 -72 -72 -204 -125 -108 -43 -128 -44 -161 -4 -28 32 -32 58
-16 87 13 23 77 165 101 225 24 61 123 209 206 310 l65 77 101 1 c56 0 111 5
122 10 13 6 -18 8 -93 5 -93 -4 -113 -2 -108 9 2 7 33 53 68 102 80 110 158
235 182 291 18 41 38 53 51 32 8 -13 100 -60 117 -60 6 0 -11 11 -38 25 -28
14 -61 36 -73 49 -20 21 -21 27 -11 48 7 12 24 35 38 50 14 15 22 33 19 42 -7
17 11 76 22 76 3 0 36 -24 73 -53z m1268 -2 c19 -19 41 -35 48 -35 12 0 16
-17 13 -60 -1 -20 7 -30 43 -49 60 -31 72 -46 88 -109 l13 -54 -43 -43 -43
-43 -42 18 c-23 10 -57 21 -74 25 -40 8 -42 -2 -14 -75 11 -27 17 -50 15 -50
-2 0 -28 13 -57 30 -30 17 -60 30 -68 30 -8 0 -27 21 -43 46 -26 42 -28 47
-13 56 10 5 17 14 17 21 0 7 -31 48 -69 93 -66 77 -68 81 -55 106 8 15 26 29
41 33 16 3 64 26 108 50 44 25 85 45 90 45 6 0 26 -16 45 -35z m606 8 c-6 -6
-36 9 -36 18 0 5 9 4 20 -3 10 -7 18 -14 16 -15z m-2345 -10 c-12 -20 -14 -14
-5 12 4 9 9 14 11 11 3 -2 0 -13 -6 -23z m2299 -33 c0 -10 2 -24 5 -32 3 -8
-16 -26 -47 -47 -30 -19 -49 -27 -45 -18 3 8 9 46 12 85 l7 70 34 -20 c19 -11
34 -28 34 -38z m-1572 -48 c61 -67 68 -80 57 -95 -11 -15 -18 -11 -66 45 -30
35 -67 77 -83 95 l-28 33 25 0 c18 0 43 -20 95 -78z m2902 30 c0 -22 3 -75 6
-118 4 -57 3 -75 -5 -64 -6 8 -11 33 -11 55 0 22 -3 64 -6 92 l-7 53 -37 -34
c-40 -36 -79 -60 -86 -54 -6 6 119 106 134 107 7 1 12 -13 12 -37z m-2444 17
c4 -7 22 -9 44 -6 66 9 153 -43 249 -147 45 -48 80 -93 78 -99 -2 -6 -20 -15
-41 -19 -45 -10 -103 12 -157 59 -65 57 -164 92 -191 68 -22 -20 -96 -45 -136
-45 -54 -1 -20 -16 53 -24 163 -18 269 -60 277 -109 6 -33 -18 -74 -52 -89
-33 -14 -36 -24 -15 -52 19 -26 19 -59 -1 -99 -19 -37 -49 -68 -58 -60 -3 4
-7 -7 -7 -23 -6 -115 -8 -128 -23 -152 -15 -25 -117 -83 -139 -81 -12 2 -40
-6 -62 -17 -22 -11 -47 -19 -56 -17 -11 3 -19 -10 -28 -49 -10 -38 -25 -63
-52 -89 -30 -29 -40 -48 -47 -90 -9 -46 -7 -57 8 -77 18 -22 18 -24 -4 -75
-13 -29 -27 -67 -31 -85 -3 -17 -10 -32 -15 -32 -13 0 -247 137 -300 176 -25
18 -68 44 -95 59 -28 15 -43 24 -34 22 18 -6 30 13 49 76 7 21 27 54 46 72 19
19 34 40 34 47 0 7 38 87 84 178 50 102 97 212 120 285 21 66 49 143 61 172
13 28 31 77 39 108 8 31 23 63 33 71 36 29 312 152 345 153 9 1 20 -4 24 -10z
m1175 1 c10 -6 19 -19 19 -29 0 -37 60 -204 105 -289 30 -60 51 -119 66 -187
11 -55 32 -129 45 -165 13 -35 22 -66 20 -68 -2 -2 -30 26 -62 62 -124 138
-175 260 -198 471 -8 72 -18 149 -22 173 -7 45 -4 48 27 32z m1470 -85 c45
-86 116 -204 193 -325 62 -97 378 -605 392 -630 6 -11 18 -28 26 -37 23 -27
33 -64 15 -57 -10 3 -16 -4 -20 -24 -3 -15 -15 -39 -25 -52 -18 -22 -22 -23
-37 -10 -14 12 -16 25 -12 70 3 30 9 65 13 78 7 25 -9 29 -49 11 l-24 -11 17
-46 c38 -102 32 -134 -26 -148 -32 -8 -50 0 -57 25 -4 18 -1 21 29 21 19 0 34
3 34 8 0 4 -10 35 -22 69 -19 56 -24 62 -45 57 -19 -5 -23 -2 -23 15 0 12 6
24 14 27 12 5 12 11 -1 42 -9 20 -23 62 -33 92 -10 33 -22 55 -31 55 -10 0
-14 12 -15 40 0 37 -17 60 -193 280 l-193 240 6 50 c3 27 9 94 12 148 4 53 8
96 9 95 2 -2 22 -39 46 -83z m-1941 45 c6 -11 8 -20 6 -20 -3 0 -10 9 -16 20
-6 11 -8 20 -6 20 3 0 10 -9 16 -20z m-460 -10 c0 -5 -5 -10 -11 -10 -5 0 -7
5 -4 10 3 6 8 10 11 10 2 0 4 -4 4 -10z m-117 -149 c4 -4 5 -15 2 -23 -5 -13
-12 -14 -40 -5 -29 9 -33 13 -24 29 10 18 41 18 62 -1z m967 -61 c53 -34 54
-37 43 -115 -6 -49 -21 -61 -94 -80 -24 -6 -25 -4 -21 24 6 46 -5 81 -27 81
-10 0 -38 -7 -61 -15 -39 -14 -45 -14 -62 1 -21 19 -25 42 -5 25 20 -16 87 46
116 107 l24 51 18 -23 c10 -13 41 -38 69 -56z m903 17 c14 -23 30 -72 36 -107
6 -36 14 -75 16 -87 5 -21 3 -21 -46 10 l-51 32 6 65 c3 36 6 80 6 98 0 17 2
32 4 32 2 0 15 -19 29 -43z m436 -6 c-3 -7 -13 3 -23 21 l-19 33 23 -21 c12
-12 21 -27 19 -33z m-3511 -51 c-23 -41 -38 -51 -38 -26 0 17 38 66 51 66 5 0
-1 -18 -13 -40z m2798 13 c-6 -6 -36 9 -36 18 0 5 9 4 20 -3 10 -7 18 -14 16
-15z m-945 -33 c9 -24 17 -30 39 -30 20 0 35 -9 50 -30 19 -27 23 -29 43 -16
12 8 39 18 60 22 l39 7 -2 -59 c-1 -33 -2 -62 -1 -66 0 -4 26 5 57 19 30 14
57 23 60 20 3 -2 -8 -36 -25 -73 -16 -38 -48 -114 -71 -168 -57 -137 -140
-306 -150 -306 -5 0 -39 44 -76 98 -37 53 -81 113 -98 132 -76 86 -270 359
-262 368 3 2 39 -15 80 -38 42 -23 76 -40 76 -37 0 2 -11 31 -25 65 -14 34
-25 67 -25 73 0 14 42 5 93 -22 l39 -20 40 46 c22 25 42 45 44 45 3 0 10 -13
15 -30z m-2010 -141 c-5 -13 -10 -20 -10 -16 -1 5 -6 5 -12 1 -8 -4 -7 -9 2
-15 10 -6 7 -8 -8 -6 -21 1 -21 2 5 33 31 36 36 37 23 3z m3426 -151 c-12 -10
-55 -27 -95 -39 -43 -13 -71 -27 -68 -33 2 -6 15 -35 27 -64 29 -65 21 -75
-66 -80 l-64 -4 -53 50 -52 50 109 114 109 114 88 -45 c87 -46 87 -46 65 -63z
m-1964 -1 c-4 -6 0 -8 9 -5 8 4 15 1 15 -7 0 -9 -16 -5 -54 13 -35 17 -52 31
-48 40 3 8 5 20 5 29 0 9 14 1 40 -23 21 -20 36 -42 33 -47z m1571 20 c3 -12
-1 -29 -11 -39 -14 -16 -17 -16 -28 -2 -6 9 -9 29 -7 44 3 21 8 26 22 23 10
-3 21 -14 24 -26z m-1478 -71 c1 -9 -2 -14 -7 -10 -5 3 -6 10 -3 16 5 7 2 9
-8 6 -8 -4 -15 0 -15 8 0 19 30 1 33 -20z m-175 -21 c37 -25 72 -45 78 -45 6
0 11 -4 11 -8 0 -13 -71 -32 -117 -32 -39 0 -41 1 -47 38 -8 50 -8 92 1 92 4
0 37 -20 74 -45z m1998 -35 l32 -40 -33 -20 c-41 -25 -47 -23 -63 20 -7 19
-15 42 -19 52 -5 11 -2 18 11 21 35 9 40 7 72 -33z m-1521 -64 c16 -51 10 -56
-17 -13 -18 29 -31 37 -81 50 -33 8 -60 13 -60 12 0 -2 38 -31 85 -66 46 -34
87 -68 89 -76 8 -20 -2 -16 -43 16 -20 15 -62 45 -93 65 -48 30 -58 41 -58 65
l0 27 83 -20 c80 -21 82 -22 95 -60z m-471 -42 c51 -34 56 -42 11 -16 l-38 21
-1 -22 c0 -19 -2 -19 -11 6 -6 18 -15 26 -24 23 -8 -3 -14 -1 -14 4 0 18 39
10 77 -16z m1293 9 c0 -13 -25 -27 -93 -53 -101 -38 -113 -41 -109 -22 1 6 -2
12 -8 12 -5 0 -10 4 -10 9 0 6 21 13 46 17 26 4 72 17 103 29 70 29 71 29 71
8z m775 -53 c-10 -11 -23 -20 -29 -20 -6 0 0 9 14 20 32 25 38 25 15 0z
m-1082 3 c-7 -2 -21 -2 -30 0 -10 3 -4 5 12 5 17 0 24 -2 18 -5z m395 -195
c11 -29 23 -61 27 -70 12 -30 -13 -20 -41 17 -21 28 -25 41 -20 70 4 19 9 35
11 35 2 0 12 -24 23 -52z m-587 -21 c-13 -12 -20 -15 -16 -7 14 26 28 41 33
35 3 -3 -5 -16 -17 -28z m518 -182 c11 -11 34 -152 26 -163 -9 -12 -92 38
-124 74 -21 24 -47 44 -57 44 -15 1 -10 9 21 36 36 30 44 34 80 28 22 -3 46
-12 54 -19z m-938 -32 c16 -10 29 -20 29 -24 0 -3 -25 -14 -56 -25 -46 -15
-56 -23 -61 -46 -6 -31 -68 -91 -86 -85 -7 2 -15 35 -18 78 -3 41 -8 80 -10
88 -9 31 154 42 202 14z m803 -45 c-1 -10 2 -16 6 -13 4 3 14 -3 21 -12 26
-30 92 -73 114 -73 18 0 24 -7 27 -30 2 -16 0 -31 -6 -33 -27 -9 -85 22 -142
75 -51 49 -67 58 -98 58 -43 0 -46 9 -8 32 36 22 88 19 86 -4z m-744 2 c13 -9
9 -15 -20 -40 -19 -17 -39 -30 -45 -30 -6 0 -19 -19 -30 -42 -20 -43 -76 -90
-123 -103 -20 -6 -22 -3 -20 25 2 23 10 36 28 45 15 8 32 21 39 29 7 9 17 13
22 10 5 -3 9 -2 7 3 -1 4 2 23 6 41 6 24 13 32 29 32 12 0 36 9 52 19 36 23
36 23 55 11z"/>
<path d="M5131 5583 c31 -52 43 -64 34 -33 -10 33 -35 70 -47 70 -5 0 0 -17
13 -37z"/>
<path d="M5430 5005 l-25 -14 37 -1 c20 0 45 -3 55 -6 13 -4 11 0 -7 15 -30
24 -28 24 -60 6z"/>
<path d="M4370 5632 c6 -13 14 -21 18 -18 3 4 -2 14 -12 24 -18 16 -18 16 -6
-6z"/>
<path d="M4415 5560 c-4 -6 3 -25 15 -43 l22 -32 -6 34 c-3 18 -6 37 -6 42 0
12 -17 11 -25 -1z"/>
<path d="M4492 5495 c2 -22 9 -31 26 -33 29 -4 28 9 -4 39 l-26 24 4 -30z"/>
<path d="M4506 5408 c6 -9 66 -38 79 -38 4 0 3 5 0 10 -3 6 -1 10 5 10 7 0 10
5 8 12 -2 6 -25 12 -51 13 -28 2 -44 -1 -41 -7z"/>
<path d="M1537 5398 c-17 -68 -16 -73 25 -83 24 -6 28 -3 47 40 12 26 21 51
21 55 0 8 -62 50 -72 50 -3 0 -13 -28 -21 -62z m50 -24 c4 -15 -14 -37 -25
-30 -13 8 -3 48 11 43 6 -2 12 -7 14 -13z"/>
<path d="M1463 5088 c-12 -40 -20 -74 -18 -76 10 -10 56 71 58 103 4 64 -18
49 -40 -27z"/>
<path d="M4530 5162 c0 -10 -5 -23 -11 -29 -7 -7 -6 -12 5 -16 9 -4 17 -1 17
6 1 7 3 22 4 35 1 12 -2 22 -6 22 -5 0 -9 -8 -9 -18z"/>
<path d="M4593 5123 c1 -14 13 -27 35 -38 46 -22 52 -13 8 14 -19 12 -37 27
-39 34 -3 7 -4 2 -4 -10z"/>
<path d="M4517 5064 c-4 -4 -7 -14 -7 -23 0 -11 3 -12 11 -4 6 6 10 16 7 23
-2 6 -7 8 -11 4z"/>
<path d="M4580 5035 c0 -8 9 -19 21 -25 17 -9 23 -8 34 7 12 15 11 19 -3 25
-29 11 -52 9 -52 -7z"/>
<path d="M4693 4995 c-9 -17 -3 -27 43 -71 51 -46 56 -49 70 -33 10 11 12 19
5 24 -6 3 -11 -1 -11 -9 0 -20 -7 -20 -27 0 -14 13 -14 17 -2 24 11 7 9 10 -6
15 -38 12 -50 22 -55 46 -6 23 -7 23 -17 4z"/>
<path d="M4556 4975 c10 -8 24 -14 29 -14 6 0 1 6 -9 14 -11 8 -24 15 -30 15
-5 0 -1 -7 10 -15z"/>
<path d="M4637 4923 c-4 -3 12 -15 35 -25 50 -22 59 -18 22 11 -27 21 -46 26
-57 14z"/>
<path d="M4831 4846 c-9 -10 -8 -15 2 -19 8 -3 13 3 13 14 0 23 0 23 -15 5z"/>
<path d="M5340 4425 c-7 -18 -7 -30 1 -38 5 -7 33 -50 62 -95 28 -46 53 -79
55 -73 6 17 -35 141 -60 185 -29 49 -45 55 -58 21z"/>
<path d="M5616 3443 c-10 -64 -7 -114 9 -129 8 -8 19 -23 24 -32 9 -15 11 -15
30 2 33 30 29 96 -9 152 -17 24 -35 44 -39 44 -5 0 -11 -17 -15 -37z"/>
<path d="M5229 3433 c-57 -62 -86 -123 -59 -123 5 0 7 -13 4 -29 -5 -25 0 -37
34 -73 22 -23 42 -41 44 -38 27 37 58 93 58 107 0 28 -38 165 -47 174 -5 5
-20 -3 -34 -18z"/>
<path d="M5870 2500 c0 -8 5 -22 10 -30 9 -13 10 -13 10 0 0 8 -5 22 -10 30
-9 13 -10 13 -10 0z"/>
<path d="M5741 2404 c0 -10 6 -37 13 -59 l13 -40 4 43 c4 32 0 47 -13 59 -17
15 -18 15 -17 -3z"/>
<path d="M2234 2905 c22 -46 45 -73 46 -55 0 9 -14 31 -30 50 -31 35 -31 35
-16 5z"/>
<path d="M5297 1675 c-4 -22 -10 -51 -13 -64 -7 -23 -7 -23 20 -6 29 19 31 35
12 80 l-13 30 -6 -40z"/>
<path d="M5522 1578 c-7 -7 -12 -43 -12 -92 0 -47 4 -76 9 -70 8 9 26 174 19
174 -2 0 -9 -5 -16 -12z"/>
<path d="M2791 2104 c-13 -58 -21 -107 -18 -110 2 -2 14 43 27 101 13 58 21
107 18 110 -2 3 -15 -43 -27 -101z"/>
<path d="M2288 1403 c7 -3 16 -2 19 1 4 3 -2 6 -13 5 -11 0 -14 -3 -6 -6z"/>
<path d="M2333 1393 c9 -2 23 -2 30 0 6 3 -1 5 -18 5 -16 0 -22 -2 -12 -5z"/>
<path d="M2389 1381 c11 -7 11 -13 -3 -32 -27 -39 -18 -45 14 -9 37 44 37 50
3 50 -20 0 -24 -3 -14 -9z"/>
<path d="M2356 1257 c-5 -15 -6 -31 -2 -34 11 -11 18 5 14 34 l-4 28 -8 -28z"/>
<path d="M2380 1204 c0 -9 91 -46 97 -40 3 3 -3 9 -13 12 -10 4 -34 13 -51 20
-18 7 -33 11 -33 8z"/>
<path d="M2230 1076 c0 -2 7 -7 16 -10 8 -3 12 -2 9 4 -6 10 -25 14 -25 6z"/>
<path d="M2002 978 c-14 -14 -16 -28 -3 -28 9 0 24 30 18 36 -2 2 -9 -2 -15
-8z"/>
<path d="M2750 1250 c0 -5 5 -10 11 -10 5 0 7 5 4 10 -3 6 -8 10 -11 10 -2 0
-4 -4 -4 -10z"/>
<path d="M3109 1223 l-24 -28 28 24 c25 23 32 31 24 31 -2 0 -14 -12 -28 -27z"/>
<path d="M3045 1020 c-3 -5 -1 -10 4 -10 6 0 11 5 11 10 0 6 -2 10 -4 10 -3 0
-8 -4 -11 -10z"/>
<path d="M2808 833 c-8 -10 -18 -31 -22 -48 -6 -26 -5 -28 6 -10 6 11 19 26
27 33 14 10 13 11 -4 5 -20 -6 -20 -6 -1 15 11 12 17 22 14 22 -3 0 -12 -8
-20 -17z"/>
<path d="M2844 815 c-4 -14 -4 -29 0 -32 3 -4 6 4 6 16 0 13 9 25 23 31 l22 9
-22 0 c-16 1 -24 -6 -29 -24z"/>
<path d="M2985 815 c-16 -8 -23 -14 -14 -15 8 0 24 7 35 15 23 18 18 18 -21 0z"/>
<path d="M2590 500 c-20 -6 -21 -8 -5 -8 11 0 29 3 40 8 25 11 -1 11 -35 0z"/>
<path d="M6056 693 c39 -94 45 -103 73 -103 59 0 57 15 -9 77 -34 32 -66 59
-71 61 -5 2 -2 -14 7 -35z"/>
<path d="M3205 1010 c3 -5 11 -10 16 -10 6 0 7 5 4 10 -3 6 -11 10 -16 10 -6
0 -7 -4 -4 -10z"/>
<path d="M4360 216 c20 -25 100 -76 119 -76 9 0 -6 12 -34 26 -27 14 -61 35
-75 47 -19 18 -21 18 -10 3z"/>
<path d="M3400 125 c-19 -14 -30 -25 -25 -25 6 0 24 11 40 25 39 31 30 31 -15
0z"/>
<path d="M3470 5889 c0 -3 11 -20 25 -39 14 -19 25 -30 25 -24 -1 10 -50 73
-50 63z"/>
<path d="M3120 5506 c0 -2 8 -10 18 -17 15 -13 16 -12 3 4 -13 16 -21 21 -21
13z"/>
<path d="M2550 5438 c-29 -47 -59 -131 -75 -210 -22 -102 -17 -105 10 -8 27
95 48 147 82 202 26 42 27 48 13 48 -6 0 -19 -15 -30 -32z"/>
<path d="M4276 5363 c33 -59 54 -90 54 -79 0 10 -70 126 -76 126 -3 0 7 -21
22 -47z"/>
<path d="M4344 5243 c18 -35 45 -70 46 -60 0 8 -51 87 -57 87 -2 0 3 -12 11
-27z"/>
<path d="M3352 4285 c-1 -66 -7 -149 -13 -185 -14 -92 -83 -292 -130 -380 -24
-45 -31 -65 -18 -50 38 44 94 167 129 285 l18 60 3 -110 c1 -60 3 -101 5 -90
10 63 21 414 14 495 l-7 95 -1 -120z"/>
<path d="M3868 4313 c6 -2 18 -2 25 0 6 3 1 5 -13 5 -14 0 -19 -2 -12 -5z"/>
<path d="M2270 3869 c0 -5 5 -7 10 -4 6 3 10 8 10 11 0 2 -4 4 -10 4 -5 0 -10
-5 -10 -11z"/>
<path d="M3076 3836 c-4 -20 -27 -75 -51 -123 -24 -48 -42 -89 -40 -91 1 -2
19 27 39 63 21 36 41 63 46 60 4 -3 11 22 15 56 8 66 1 91 -9 35z"/>
<path d="M4451 3774 c0 -11 3 -14 6 -6 3 7 2 16 -1 19 -3 4 -6 -2 -5 -13z"/>
<path d="M3059 3690 c-7 -35 -4 -48 7 -38 3 4 4 21 2 40 l-3 33 -6 -35z"/>
<path d="M4485 3655 c3 -22 13 -47 21 -56 7 -8 19 -30 25 -48 6 -17 13 -30 15
-28 5 4 -54 158 -63 167 -3 3 -2 -13 2 -35z"/>
<path d="M3991 3622 c8 -12 24 -25 37 -28 23 -6 52 10 52 29 0 5 -8 3 -18 -6
-24 -22 -31 -21 -60 6 l-25 22 14 -23z"/>
<path d="M3895 3600 c-16 -16 -27 -31 -24 -33 2 -2 17 11 32 30 36 41 31 43
-8 3z"/>
<path d="M4501 3564 c0 -11 3 -14 6 -6 3 7 2 16 -1 19 -3 4 -6 -2 -5 -13z"/>
<path d="M4511 3524 c0 -11 3 -14 6 -6 3 7 2 16 -1 19 -3 4 -6 -2 -5 -13z"/>
<path d="M4522 3480 c0 -14 2 -19 5 -12 2 6 2 18 0 25 -3 6 -5 1 -5 -13z"/>
<path d="M3924 3476 c11 -9 24 -16 30 -16 12 0 7 5 -24 19 -24 11 -24 11 -6
-3z"/>
<path d="M4036 3437 c-15 -11 -12 -12 23 -9 23 2 44 8 47 13 8 14 -50 11 -70
-4z"/>
<path d="M2691 3250 c-13 -11 -19 -20 -14 -20 6 0 18 9 28 20 23 25 17 25 -14
0z"/>
<path d="M2564 3125 c11 -8 24 -15 30 -15 5 0 1 7 -10 15 -10 8 -23 14 -29 14
-5 0 -1 -6 9 -14z"/>
<path d="M2618 3103 c7 -3 16 -2 19 1 4 3 -2 6 -13 5 -11 0 -14 -3 -6 -6z"/>
<path d="M1674 2997 c8 -41 44 -130 45 -109 1 7 5 10 11 7 8 -5 -46 123 -58
135 -3 3 -2 -12 2 -33z"/>
<path d="M1656 2525 c11 -107 7 -423 -5 -477 -13 -55 1 -47 23 15 10 28 26 63
36 77 23 34 40 86 40 124 0 32 -83 333 -95 344 -4 4 -3 -33 1 -83z m57 -178
c13 -50 13 -65 1 -118 -26 -113 -34 -102 -31 48 1 78 5 139 9 135 3 -4 13 -33
21 -65z"/>
<path d="M3718 2390 c-4 -14 -7 -43 -7 -65 l1 -40 9 40 c6 22 8 51 7 65 l-3
25 -7 -25z"/>
<path d="M3470 2256 c0 -2 8 -10 18 -17 15 -13 16 -12 3 4 -13 16 -21 21 -21
13z"/>
<path d="M3538 2191 c9 -16 18 -28 20 -27 6 7 -18 56 -27 56 -6 0 -2 -13 7
-29z"/>
<path d="M3785 1970 c27 -12 43 -12 25 0 -8 5 -22 9 -30 9 -10 0 -8 -3 5 -9z"/>
<path d="M3932 1830 c0 -14 2 -19 5 -12 2 6 2 18 0 25 -3 6 -5 1 -5 -13z"/>
<path d="M3942 1780 c0 -14 7 -74 16 -135 12 -75 21 -105 27 -95 12 19 20 174
10 197 -5 10 -9 21 -9 25 -2 12 -16 21 -16 10 0 -19 -18 -14 -23 6 -3 11 -5 8
-5 -8z"/>
<path d="M1890 1630 c-6 -11 -8 -20 -6 -20 3 0 10 9 16 20 6 11 8 20 6 20 -3
0 -10 -9 -16 -20z"/>
<path d="M1512 1610 c0 -14 2 -19 5 -12 2 6 2 18 0 25 -3 6 -5 1 -5 -13z"/>
<path d="M1370 1023 c-18 -55 -127 -264 -155 -293 -12 -14 -100 -121 -194
-239 -153 -192 -264 -343 -330 -453 l-23 -38 155 0 154 0 93 238 c139 354 184
468 228 567 45 103 95 245 88 252 -2 2 -9 -13 -16 -34z"/>
<path d="M4590 935 c0 -17 142 -399 194 -522 27 -61 75 -160 107 -219 33 -59
59 -111 59 -115 0 -4 9 -24 21 -43 l21 -36 101 0 102 0 -47 40 c-26 22 -56 56
-68 75 -12 19 -27 35 -33 35 -6 0 -25 -14 -42 -30 l-32 -31 -35 58 c-44 72
-111 204 -105 209 2 2 21 -9 43 -25 21 -15 64 -40 94 -55 30 -15 66 -34 80
-42 55 -30 113 -54 131 -54 10 0 33 9 51 20 36 22 68 26 84 10 6 -6 33 -13 60
-16 60 -8 84 -27 84 -69 0 -18 3 -53 6 -79 l7 -46 219 0 220 0 -5 22 c-3 13
-11 52 -18 88 -12 63 -61 176 -102 234 l-20 29 -9 -24 c-7 -17 -11 -20 -17
-11 -6 10 -11 10 -21 -2 -17 -22 -98 -44 -137 -39 -21 3 -33 1 -33 -6 0 -6 19
-11 48 -11 l47 0 -32 -21 c-37 -23 -71 -22 -87 4 -8 13 -8 20 3 26 9 6 -14 14
-65 25 -44 9 -94 20 -112 25 -22 6 -30 6 -26 -1 4 -6 7 -31 8 -57 l1 -46 -40
0 c-22 0 -54 -6 -71 -13 -22 -9 -41 -10 -70 -3 -64 16 -119 39 -160 66 -22 14
-46 30 -54 35 -89 58 -109 72 -124 89 -13 15 -86 190 -86 207 0 2 24 4 53 4
65 0 137 -23 195 -63 52 -35 63 -31 22 8 -17 16 -30 25 -30 20 0 -5 -10 1 -22
12 -13 12 -68 40 -123 63 -111 46 -139 67 -166 125 -27 59 -24 73 9 44 l27
-24 -24 27 c-13 15 -29 25 -34 21 -6 -4 -8 0 -4 10 3 10 2 17 -4 17 -5 0 -16
15 -24 33 -8 17 -14 27 -15 22z m160 -280 c18 -10 20 -14 8 -15 -23 0 -48 11
-48 21 0 12 11 11 40 -6z m678 -355 c42 -19 55 -46 27 -56 -8 -3 -27 4 -41 15
-17 14 -34 19 -47 15 -16 -5 -19 -3 -14 11 4 9 7 21 7 26 0 14 21 11 68 -11z"/>
<path d="M4750 826 c0 -2 8 -10 18 -17 15 -13 16 -12 3 4 -13 16 -21 21 -21
13z"/>
<path d="M378 773 c7 -3 16 -2 19 1 4 3 -2 6 -13 5 -11 0 -14 -3 -6 -6z"/>
<path d="M1397 603 c-2 -4 -71 -123 -152 -263 -81 -140 -159 -274 -172 -298
-20 -34 -22 -42 -10 -42 10 0 44 52 88 132 40 73 114 209 166 302 52 93 92
171 89 173 -2 2 -6 1 -9 -4z"/>
<path d="M5060 495 c7 -8 39 -33 72 -54 57 -39 58 -40 36 -52 -13 -7 -48 -20
-78 -30 -30 -9 -47 -18 -37 -18 18 -1 99 21 145 40 31 12 24 20 -63 79 -76 52
-97 61 -75 35z"/>
<path d="M5255 370 c3 -5 11 -10 16 -10 6 0 7 5 4 10 -3 6 -11 10 -16 10 -6 0
-7 -4 -4 -10z"/>
<path d="M5195 360 c-17 -7 -15 -9 13 -9 17 -1 32 4 32 9 0 12 -17 12 -45 0z"/>
<path d="M4958 333 c6 -2 18 -2 25 0 6 3 1 5 -13 5 -14 0 -19 -2 -12 -5z"/>
<path d="M5268 173 c-25 -6 -22 -18 7 -31 35 -16 37 -15 33 10 -3 23 -13 28
-40 21z"/>
<path d="M4178 113 c-40 -44 -81 -103 -76 -109 3 -2 28 27 56 66 55 75 61 86
20 43z"/>
<path d="M4265 128 c-26 -14 -104 -88 -116 -110 -9 -16 -4 -18 58 -17 l68 1
-42 15 c-24 8 -43 18 -43 23 0 5 24 29 52 54 54 47 58 54 23 34z"/>
<path d="M3735 60 c33 -33 62 -60 64 -60 3 0 -21 27 -54 60 -33 33 -62 60 -64
60 -3 0 21 -27 54 -60z"/>
<path d="M4020 95 c-10 -13 -10 -23 5 -55 10 -22 22 -40 26 -40 5 0 -1 15 -12
34 -16 28 -18 39 -9 55 13 25 8 27 -10 6z"/>
<path d="M5300 80 c0 -44 10 -80 21 -80 10 0 1 77 -12 100 -6 10 -8 4 -9 -20z"/>
<path d="M4430 30 c-25 -16 -38 -30 -30 -30 13 1 92 59 80 60 -3 0 -25 -14
-50 -30z"/>
<path d="M3300 16 c0 -9 5 -16 10 -16 6 0 10 4 10 9 0 6 -4 13 -10 16 -5 3
-10 -1 -10 -9z"/>
<path d="M3655 15 l-30 -13 49 -1 c42 -1 47 1 36 14 -15 18 -17 18 -55 0z"/>
</g>
</svg>
